<svg id="Capa_1" enable-background="new 0 0 512 512" height="512" viewBox="0 0 512 512" width="512" xmlns="http://www.w3.org/2000/svg"><g><path d="m317.62 7.5h-27.428c-42.828 0-79.374 32.015-85.01 74.471l-9.826 74.023h-50.585c-7.012 0-13.504-4.154-16.026-10.697-.026-.068-.052-.136-.077-.204-1.524-4.115-6.846-5.05-9.654-1.678-4.685 5.628-7.495 12.872-7.467 20.775.062 17.916 15.066 32.211 32.982 32.211h45.463l-30.307 228.312c-2.98 22.451-22.306 39.382-44.955 39.382h-27.427c-5.579 0-10.102 4.523-10.102 10.102v20.203c0 5.579 4.523 10.102 10.102 10.102h27.428c42.828 0 79.374-32.015 85.01-74.471l31.012-233.631h45.561c7.012 0 13.504 4.154 16.026 10.697.026.068.052.136.077.203 1.524 4.115 6.846 5.051 9.654 1.678 4.685-5.628 7.495-12.872 7.467-20.774-.062-17.916-15.066-32.211-32.982-32.211h-40.439l9.12-68.706c2.98-22.451 22.306-39.382 44.955-39.382h27.428c5.579 0 10.102-4.523 10.102-10.102v-20.201c0-5.579-4.523-10.102-10.102-10.102z" fill="#fd8087"/><path d="m171.137 338.44-11.452 86.272c-2.98 22.451-22.306 39.382-44.955 39.382h-27.427c-5.579 0-10.102 4.523-10.102 10.102v20.203c0 5.579 4.523 10.102 10.102 10.102h27.428c42.828 0 79.374-32.015 85.01-74.471l16.196-122.007c-14.832 11.37-29.839 21.538-44.8 30.417z" fill="#fe646f"/><path d="m416.401 296.406h8.296c5.579 0 10.102-4.523 10.102-10.102v-20.203c0-5.579-4.523-10.102-10.102-10.102h-8.296c-16.851 0-32.394 8.435-41.578 22.564l-22.857 35.166-22.857-35.166c-9.185-14.128-24.728-22.563-41.579-22.563h-8.296c-5.579 0-10.102 4.523-10.102 10.102v20.203c0 5.579 4.523 10.102 10.102 10.102h8.296c3.12 0 5.999 1.562 7.699 4.178l32.64 50.218-32.64 50.218c-1.701 2.616-4.579 4.179-7.699 4.179h-8.296c-5.579 0-10.102 4.523-10.102 10.102v20.203c0 5.579 4.523 10.102 10.102 10.102h8.296c16.851 0 32.394-8.435 41.578-22.565l22.857-35.166 22.857 35.166c9.184 14.129 24.727 22.565 41.578 22.565h8.296c5.579 0 10.102-4.523 10.102-10.102v-20.205c0-5.579-4.523-10.102-10.102-10.102h-8.296c-3.12 0-5.998-1.563-7.699-4.179l-32.64-50.218 32.64-50.218c1.701-2.615 4.58-4.177 7.7-4.177z" fill="#fe646f"/><g><path d="m214.157 321.415c-4.108-.552-7.876 2.342-8.421 6.448l-13.43 101.179c-5.148 38.742-38.498 67.958-77.576 67.958h-27.43c-1.434 0-2.6-1.166-2.6-2.6v-20.2c0-1.439 1.166-2.61 2.6-2.61h27.43c26.397 0 48.922-19.729 52.395-45.894l30.301-228.31c.284-2.142-.37-4.303-1.793-5.929-1.424-1.625-3.48-2.558-5.642-2.558h-45.46c-14.004 0-25.435-11.096-25.48-24.738-.018-4.8 1.36-9.489 3.926-13.489 4.199 7.77 12.617 12.817 21.794 12.817h50.59c3.762 0 6.941-2.786 7.435-6.516l3.05-23.03c.544-4.105-2.344-7.876-6.45-8.42-4.114-.547-7.876 2.345-8.42 6.451l-2.188 16.515h-44.018c-3.988 0-7.578-2.31-8.981-5.762-.028-.085-.059-.171-.09-.255-1.667-4.479-5.458-7.627-10.142-8.425-4.669-.793-9.271.917-12.311 4.572-5.965 7.164-9.231 16.255-9.196 25.595.073 21.882 18.232 39.685 40.48 39.685h36.899l-29.174 219.822c-2.487 18.737-18.619 32.867-37.525 32.867h-27.43c-9.705 0-17.6 7.9-17.6 17.61v20.2c0 9.704 7.895 17.6 17.6 17.6h27.43c46.568 0 86.311-34.814 92.445-80.983l13.429-101.181c.546-4.104-2.341-7.874-6.447-8.419z"/><path d="m285.34 209.793c.018.046.036.093.055.139.013.034.027.068.041.104 1.68 4.407 5.43 7.507 10.06 8.306 4.673.804 9.281-.896 12.337-4.561 5.973-7.171 9.243-16.266 9.208-25.605-.073-21.882-18.232-39.685-40.48-39.685h-31.878l7.993-60.213c2.486-18.738 18.614-32.868 37.514-32.868h27.43c9.705 0 17.6-7.9 17.6-17.61v-20.2c0-9.704-7.896-17.6-17.6-17.6h-27.43c-46.568 0-86.311 34.814-92.445 80.984l-2.16 16.3c-.544 4.106 2.343 7.876 6.45 8.42 4.106.552 7.876-2.345 8.42-6.449l2.16-16.298c5.147-38.741 38.497-67.957 77.575-67.957h27.43c1.434 0 2.6 1.166 2.6 2.6v20.2c0 1.439-1.167 2.61-2.6 2.61h-27.43c-26.391 0-48.912 19.729-52.384 45.893l-9.12 68.7c-.285 2.143.369 4.304 1.793 5.93 1.424 1.625 3.48 2.558 5.642 2.558h40.44c14.004 0 25.434 11.096 25.48 24.738.018 4.801-1.364 9.496-3.933 13.497-4.191-7.774-12.608-12.825-21.797-12.825h-45.56c-3.761 0-6.94 2.785-7.435 6.513l-12.98 97.76c-.545 4.106 2.341 7.877 6.447 8.422.335.045.667.066.997.066 3.703 0 6.925-2.743 7.425-6.514l12.115-91.248h38.99c4.045 0 7.674 2.369 9.03 5.893z"/><path d="m424.7 288.91h-8.3c-5.667 0-10.895 2.833-13.989 7.583l-5.88 9.05c-2.257 3.474-1.271 8.119 2.203 10.376 3.472 2.257 8.117 1.271 10.375-2.203l5.876-9.043c.315-.484.831-.763 1.415-.763h8.3c9.705 0 17.6-7.9 17.6-17.61v-20.2c0-9.704-7.895-17.6-17.6-17.6h-8.3c-19.388 0-37.282 9.708-47.869 25.974l-16.562 25.492-16.573-25.497c-10.583-16.261-28.478-25.969-47.866-25.969h-8.3c-9.705 0-17.6 7.896-17.6 17.6v20.2c0 9.71 7.896 17.61 17.6 17.61h8.3c.584 0 1.1.278 1.412.757l29.984 46.133-29.987 46.137c-.315.485-.828.764-1.409.764h-8.3c-9.705 0-17.6 7.896-17.6 17.6v20.2c0 9.704 7.896 17.6 17.6 17.6h8.3c19.396 0 37.291-9.709 47.869-25.973l16.57-25.493 16.564 25.495c10.577 16.262 28.471 25.971 47.867 25.971h8.3c9.705 0 17.6-7.896 17.6-17.6v-20.2c0-9.704-7.895-17.6-17.6-17.6h-8.3c-.58 0-1.093-.278-1.411-.768l-29.984-46.133 5.033-7.742c2.258-3.474 1.272-8.118-2.201-10.376-3.472-2.255-8.119-1.271-10.375 2.2l-7.69 11.83c-1.616 2.485-1.616 5.689 0 8.175l32.637 50.215c3.087 4.758 8.317 7.599 13.992 7.599h8.3c1.434 0 2.6 1.166 2.6 2.6v20.2c0 1.434-1.166 2.6-2.6 2.6h-8.3c-14.301 0-27.495-7.158-35.291-19.146l-22.85-35.17c-1.383-2.129-3.75-3.414-6.288-3.414h-.001c-2.539 0-4.905 1.284-6.288 3.413l-22.859 35.168c-7.798 11.99-20.992 19.148-35.293 19.148h-8.3c-1.434 0-2.6-1.166-2.6-2.6v-20.2c0-1.434 1.167-2.6 2.6-2.6h8.3c5.674 0 10.904-2.841 13.989-7.594l32.64-50.22c1.615-2.485 1.615-5.688 0-8.174l-32.644-50.227c-3.09-4.744-8.318-7.576-13.985-7.576h-8.3c-1.434 0-2.6-1.171-2.6-2.61v-20.2c0-1.434 1.167-2.6 2.6-2.6h8.3c14.295 0 27.489 7.159 35.292 19.146l22.86 35.171c1.384 2.129 3.75 3.413 6.29 3.413 2.539 0 4.905-1.285 6.288-3.414l22.846-35.165c7.805-11.992 21-19.151 35.294-19.151h8.3c1.434 0 2.6 1.166 2.6 2.6v20.2c-.001 1.44-1.167 2.611-2.601 2.611z"/></g></g></svg>
