<svg id="Capa_1" enable-background="new 0 0 512 512" height="512" viewBox="0 0 512 512" width="512" xmlns="http://www.w3.org/2000/svg"><g><circle cx="256" cy="256" fill="#33d8f8" r="246"/><g><path d="m437.019 74.98c-48.352-48.351-112.639-74.98-181.019-74.98-52.12 0-102.273 15.568-145.04 45.023-4.548 3.132-5.696 9.359-2.563 13.907s9.359 5.697 13.908 2.563c39.414-27.144 85.645-41.493 133.695-41.493 63.038 0 122.303 24.548 166.877 69.123 44.575 44.574 69.123 103.839 69.123 166.877s-24.548 122.303-69.123 166.877c-44.574 44.575-103.839 69.123-166.877 69.123s-122.303-24.548-166.877-69.123c-44.575-44.574-69.123-103.839-69.123-166.877 0-48.05 14.348-94.28 41.494-133.694 3.132-4.548 1.985-10.775-2.564-13.907-4.547-3.134-10.775-1.985-13.908 2.563-29.454 42.766-45.022 92.919-45.022 145.038 0 68.38 26.628 132.667 74.98 181.02 48.353 48.351 112.64 74.98 181.02 74.98s132.667-26.629 181.019-74.98c48.353-48.353 74.981-112.64 74.981-181.02s-26.628-132.667-74.981-181.02z"/><path d="m179.197 381.132c-7.128 0-13.821-3.805-17.467-9.929l-3.291-5.528c-2.825-4.746-8.961-6.303-13.708-3.479-4.746 2.824-6.303 8.962-3.479 13.707l3.291 5.529c7.234 12.151 20.512 19.699 34.652 19.699 20.021 0 36.78-14.359 39.85-34.144l22.075-142.265h20.222c5.523 0 10-4.478 10-10s-4.477-10-10-10h-17.119l8.79-56.646c1.547-9.972 9.995-17.21 20.087-17.21 7.127 0 13.82 3.805 17.466 9.929l3.291 5.528c2.825 4.746 8.962 6.302 13.708 3.479 4.746-2.824 6.303-8.962 3.479-13.707l-3.291-5.529c-7.234-12.151-20.512-19.699-34.652-19.699-20.021 0-36.78 14.359-39.85 34.144l-9.266 59.712h-20.222c-5.523 0-10 4.478-10 10s4.477 10 10 10h17.118l-21.599 139.198c-1.546 9.973-9.993 17.211-20.085 17.211z"/><path d="m363.271 259.774c-4.411-3.326-10.681-2.445-14.005 1.964l-23.086 30.618-23.255-30.642c-3.338-4.4-9.611-5.261-14.011-1.921-4.399 3.339-5.259 9.611-1.92 14.011l26.674 35.147-29.996 39.782c-3.325 4.41-2.446 10.68 1.964 14.005 1.803 1.359 3.917 2.017 6.013 2.017 3.031 0 6.027-1.374 7.992-3.98l26.592-35.267 27.956 36.836c1.967 2.593 4.952 3.956 7.973 3.956 2.106 0 4.23-.663 6.038-2.035 4.399-3.339 5.259-9.611 1.92-14.011l-31.375-41.341 26.491-35.132c3.324-4.412 2.445-10.681-1.965-14.007z"/><circle cx="82.053" cy="82.053" r="10"/></g></g></svg>